<svg width="227" height="291" xmlns="http://www.w3.org/2000/svg">
 <!-- Created with SVG-edit - http://svg-edit.googlecode.com/ -->
 <g>
  <title>Layer 1</title>
  <metadata id="svg_31">image/svg+xml</metadata>
  <defs>
   <style type="text/css"/>
  </defs>
  <g id="svg_33">
   <path stroke="#131516" d="m0,282.638306c21.69969,-16.303131 37.905819,-28.644714 48.343842,-37.177216c10.437721,-8.380112 21.424942,-18.893311 32.686852,-31.387436c11.261772,-12.493988 20.738228,-26.663818 28.42952,-42.357407c6.042854,-11.579895 11.261772,-24.988068 15.519463,-40.224808c4.257492,-15.084007 6.454773,-29.711227 6.866898,-43.576408c0,-12.950958 -1.51091,-25.292774 -4.669617,-36.872494c-3.02153,-11.732292 -8.240288,-21.331144 -15.656685,-29.101704c-7.416389,-7.618483 -17.030167,-11.427422 -28.978806,-11.427422c-11.536667,0 -22.386513,2.590057 -32.549686,7.618263c-10.025902,5.180336 -17.167545,13.408176 -21.150343,24.987896c0,1.066528 -0.549446,2.437759 -1.373341,4.418514c0.274549,2.437923 1.373341,4.266331 3.433451,5.637508c2.060059,1.371395 3.84552,1.980755 5.493507,1.980755c0.824047,0 3.158852,-0.457005 6.729679,-1.371231c3.708195,-0.914009 6.729721,-1.523533 9.201702,-1.523533c7.279175,0 13.73415,2.894764 19.639782,8.532494c5.768257,5.637508 8.652367,12.493946 8.652367,20.56921c0,5.789917 -1.510719,11.275124 -4.394722,16.303276c-2.884254,5.028038 -6.86705,9.141853 -11.948792,12.036781c-5.081383,3.047272 -10.712463,4.418678 -16.755421,4.418678c-10.987221,0 -20.32645,-3.656807 -28.017443,-11.122772c-7.553571,-7.618263 -11.399291,-17.217445 -11.399291,-29.254227c0,-15.388878 4.257643,-28.644699 12.635455,-39.919765c8.515038,-11.27507 19.227507,-19.655207 32.41231,-25.292768c13.047279,-5.78986 26.23188,-8.532492 39.691284,-8.532492c14.695419,0 28.704063,4.113976 41.751343,12.493947c13.184647,8.228007 23.485153,19.655429 31.1763,33.825259c7.690933,14.322353 11.673889,29.559097 11.673889,46.014336c0,29.254395 -8.78981,56.375397 -26.369308,81.515808c-17.579529,25.140259 -39.279312,46.928574 -65.236649,65.51709c-17.304924,12.646393 -45.322216,29.71138 -83.914853,51.194809l-1.922686,-7.922943zm190.76561,-235.709579c0,-5.485203 1.785202,-10.05624 5.356049,-13.712826c3.433578,-3.809322 7.691223,-5.63756 12.772659,-5.63756c4.39502,0 8.515198,2.133053 12.223358,6.246862c3.708176,3.961514 5.493683,8.684845 5.493683,13.865181c0,5.48521 -1.922867,10.208706 -5.493683,14.0177c-3.84552,3.656975 -8.103226,5.485207 -12.910065,5.485207c-5.08139,0 -9.201706,-1.828232 -12.497925,-5.942207c-3.296082,-3.961514 -4.944077,-8.684849 -4.944077,-14.322357zm0,79.839539c0,-5.484985 1.785202,-10.208534 5.081436,-13.865128c3.433456,-3.809319 7.690948,-5.637726 13.047272,-5.637726c4.39502,0 8.377838,1.980759 12.223389,6.094574c3.570786,4.113976 5.493652,8.532654 5.493652,13.408279c0,5.942276 -1.785507,10.665604 -5.218948,14.474701c-3.570831,3.809174 -7.691101,5.789932 -12.498093,5.789932c-5.356323,0 -9.613815,-1.980759 -13.047272,-5.637573c-3.296234,-3.656631 -5.081436,-8.532486 -5.081436,-14.62706z" id="svg_23" stroke-width="0.621063" fill="#000000"/>
  </g>
 </g>
</svg>