<svg width="283" height="754" xmlns="http://www.w3.org/2000/svg" xmlns:xlink="http://www.w3.org/1999/xlink">
 <title>Treble Clef</title>
 <defs>
  <linearGradient xlink:href="#linearGradient3013-7" id="linearGradient3776" x1="598.60864" y1="490.82504" x2="881.5011" y2="490.82504" gradientUnits="userSpaceOnUse"/>
  <linearGradient id="linearGradient3013-7">
   <stop id="stop3015-9" offset="0" stop-opacity="0.82639" stop-color="#000000"/>
   <stop id="stop3017-0" offset="1" stop-color="#000000"/>
  </linearGradient>
  <linearGradient y2="0.5" x2="1" y1="0.5" x1="0" id="linearGradient3793" xlink:href="#linearGradient3013-7"/>
  <pattern height="100" width="100" y="0" x="0" patternUnits="userSpaceOnUse" id="gridpattern">
   <image height="100" width="100" y="0" x="0"/>
  </pattern>
 </defs>
 <metadata id="metadata3038">image/svg+xmlTreble ClefJaschon</metadata>
 <g>
  <title>Layer 1</title>
  <g id="layer1">
   <path clip-rule="evenodd" d="m48.293411,693.102539c0,23.811279 27.14447,51.133118 48.19339,55.108154c0,0 22.508331,5.613403 41.030396,1.122314c3.346069,0.751465 59.497559,-9.541565 60.619904,-84.755249l-11.842743,-91.536255c7.891937,-1.348083 33.643158,-13.763367 41.591522,-18.478455c21.811707,-12.942566 31.354904,-31.635498 39.851608,-45.464996c9.541565,-20.768311 15.154938,-34.946106 15.154938,-57.55603c0,-57.18512 -46.340561,-103.536987 -103.504745,-103.536987c-8.238647,0 -16.243469,0.977203 -23.933838,2.796173l-10.215637,-73.46405c38.684052,-43.005798 77.897034,-95.869202 91.065338,-144.309357c12.910278,-63.988617 6.735718,-107.207245 -27.504089,-125.730881c-31.432312,-7.296921 -69.589081,35.642731 -92.052277,97.665604c-14.593781,33.115814 3.99762,96.385254 12.349091,122.362213c-61.527771,58.983124 -122.742722,101.282623 -129.096268,203.505371c0,80.05304 64.873886,144.938202 144.893082,144.938202c7.645203,0 20.274902,0.179077 34.642944,-1.683472l6.758301,91.412048c0,0 2.593018,66.862244 -48.293396,75.921631c-20.195892,3.592834 -39.674194,7.756531 -34.070496,-5.611755c15.738739,-8.196777 34.070496,-21.263367 34.070496,-42.704224c0,-26.683228 -20.084625,-48.315979 -44.848938,-48.315979c-24.773987,0 -44.858612,21.632751 -44.858612,48.315979l0.000031,0zm90.975006,-409.14093l9.530334,68.63443c-42.220428,13.057007 -72.901276,52.426453 -72.901276,98.945984c0,52.648987 62.945221,77.201996 61.239136,64.706268c-24.540161,-10.586639 -33.633484,-22.485809 -33.633484,-50.910675c0,-32.128967 21.958435,-59.115417 51.67337,-66.805786l22.664734,163.405548c-5.097351,1.380249 -10.597839,2.547791 -16.557922,3.479858c-86.248566,-1.728638 -126.787079,-47.632263 -126.787079,-127.683685c0.001984,-44.845703 52.808594,-96.575531 104.772186,-153.771942zm45.197266,275.968079l-22.598633,-162.776581c3.457367,-0.538635 7.016327,-0.830505 10.631714,-0.830505c38.100311,0 68.994049,30.905029 68.994049,69.016602c-0.762756,30.669556 -2.223755,76.33609 -57.02713,94.590485zm-48.069244,-342.706085c-15.548462,-52.458679 -1.493256,-78.603363 7.632324,-98.69928c21.564972,-47.45163 40.536896,-64.706177 59.857178,-80.107895c25.123901,9.856064 13.784271,80.107895 10.012482,80.107895c-11.831482,41.446411 -54.276031,74.394562 -77.501984,98.69928z" id="path11" stroke="#000000" fill-rule="evenodd" fill="#000000"/>
  </g>
 </g>
</svg>
